<svg version="1.1" id="Layer_1" xmlns="http://www.w3.org/2000/svg" xmlns:xlink="http://www.w3.org/1999/xlink" x="0px" y="0px"
	 width="100%" viewBox="0 0 1200 1200" enable-background="new 0 0 1200 1200" xml:space="preserve">
<path fill="#CCEBFF" opacity="1.000000" stroke="none" 
	d="
M797.000000,1201.000000 
	C531.333313,1201.000000 266.166656,1201.000000 1.000000,1201.000000 
	C1.000000,801.000000 1.000000,401.000000 1.000000,1.000000 
	C401.000000,1.000000 801.000000,1.000000 1201.000000,1.000000 
	C1201.000000,401.000000 1201.000000,801.000000 1201.000000,1201.000000 
	C1066.500000,1201.000000 932.000000,1201.000000 797.000000,1201.000000 
M720.869934,817.311096 
	C725.947815,817.060669 731.025696,816.810242 736.968140,816.709106 
	C747.264404,816.465698 747.264404,816.465698 746.925171,808.511353 
	C747.014099,808.149658 747.103027,807.788025 747.747498,806.983826 
	C752.359070,800.355896 754.208008,793.136780 752.088867,785.208130 
	C741.480103,745.515869 730.813232,705.839233 720.192566,666.150208 
	C717.367310,655.592407 714.633301,645.010315 711.889709,634.562134 
	C737.685303,620.620972 736.959290,586.478516 708.411133,575.222961 
	C719.361816,565.075439 724.315735,552.814209 720.449646,538.264038 
	C716.614319,523.829590 706.573486,515.335327 691.899292,511.771698 
	C703.655212,499.142334 707.739441,485.108337 700.131836,469.405182 
	C692.542419,453.739777 678.989197,447.839233 660.505554,449.156097 
	C662.515930,446.695465 663.326965,445.374207 664.441589,444.400482 
	C667.702332,441.551880 671.101196,438.862244 674.415405,436.074036 
	C690.983521,422.135406 707.973145,408.659210 723.976807,394.099640 
	C738.663147,380.738525 738.748535,359.015320 725.412292,344.260223 
	C712.799683,330.305695 691.121887,328.968445 676.219788,341.306488 
	C667.751221,348.317871 659.401917,355.473022 650.966675,362.524841 
	C647.871948,365.111938 644.684265,367.587799 641.090820,370.474487 
	C639.250671,363.719086 637.795288,357.747711 635.986023,351.885498 
	C633.427673,343.596100 628.159790,337.714325 619.620422,334.365021 
	C619.512695,334.236664 619.405029,334.108307 619.571106,333.104065 
	C619.973083,328.163361 620.375122,323.222626 620.831482,317.613708 
	C634.820251,318.506683 648.347107,319.370178 662.424316,320.268768 
	C663.014038,311.984406 663.685730,304.381958 663.930603,296.765839 
	C663.960938,295.823334 661.790588,294.063965 660.520020,293.942932 
	C649.582947,292.901031 638.628540,291.926056 627.656799,291.418854 
	C623.227783,291.214111 622.508667,289.398254 622.822021,285.541260 
	C623.954956,271.595917 625.038940,257.640289 625.720093,243.668015 
	C625.944824,239.057785 627.266541,237.764267 631.952637,238.199631 
	C645.547485,239.462585 659.200134,240.089493 672.811646,241.194077 
	C676.714233,241.510773 678.089478,240.358383 678.141663,236.356964 
	C678.217590,230.544113 678.866943,224.729202 679.478760,218.937027 
	C679.772278,216.158569 678.957581,215.093872 676.060974,214.899445 
	C653.133850,213.360519 630.220459,211.616776 607.293030,210.082260 
	C599.413025,209.554871 599.511780,209.752304 598.988037,217.421646 
	C597.512756,239.025284 595.883301,260.618408 594.416870,282.222626 
	C593.086609,301.820862 591.890808,321.428253 590.313965,341.565948 
	C590.197937,341.963715 590.081909,342.361450 589.370911,343.131134 
	C583.974304,349.993561 582.546387,357.747192 584.421631,366.137299 
	C585.413086,370.573120 584.224670,374.057739 580.377869,376.403351 
	C575.030273,379.664124 569.519287,377.259705 567.075562,370.718323 
	C564.723145,364.421417 561.855286,358.567505 554.998169,356.009003 
	C554.998169,356.009003 555.051147,356.008087 554.976318,355.349762 
	C554.590393,355.136597 554.204407,354.923431 553.468750,354.358643 
	C553.003906,353.901550 552.539062,353.444458 551.947266,352.291046 
	C546.043518,342.053497 540.229980,331.762085 534.176514,321.613861 
	C532.534363,318.860809 533.117798,317.250702 534.741211,314.583160 
	C538.056641,309.135559 541.645691,303.348297 542.893738,297.245239 
	C546.400085,280.099060 541.372009,263.797424 534.941345,248.198380 
	C527.033020,229.014786 510.238464,220.182220 489.750153,223.660568 
	C480.251465,225.273209 470.890747,227.709915 461.481812,229.836288 
	C455.237152,231.247528 449.017822,232.770950 442.643066,234.278214 
	C443.042236,236.469299 443.246368,237.944717 443.583984,239.388916 
	C447.300110,255.284958 451.065735,271.169464 454.761902,287.070129 
	C461.172180,314.647064 467.542938,342.233154 473.056366,369.858154 
	C461.971588,369.775848 453.920258,374.887146 447.873718,383.706787 
	C423.212128,343.425629 398.550568,303.144440 373.666138,262.499329 
	C367.183655,266.445496 361.099945,270.138458 355.026855,273.848938 
	C349.335236,277.326324 349.340912,277.334045 352.893768,283.148956 
	C376.936981,322.500366 401.013031,361.831787 425.002167,401.216187 
	C431.954102,412.629608 430.788116,418.554932 419.725403,426.690460 
	C409.728882,430.070526 404.538727,428.479828 398.925842,419.560883 
	C390.231049,405.744598 381.801453,391.761169 373.284851,377.833069 
	C357.120575,351.397980 340.920502,324.984406 324.885223,298.471252 
	C322.759735,294.956879 320.979004,294.255615 317.492706,296.695007 
	C312.863007,299.934418 308.024048,302.947540 303.005676,305.535614 
	C298.995544,307.603729 298.838226,309.500244 301.137115,313.217102 
	C318.312408,340.986755 335.186676,368.942505 352.343292,396.723846 
	C361.439148,411.452515 370.591858,426.166565 380.340179,440.463562 
	C385.593719,448.168396 393.149384,453.453339 402.968933,455.612213 
	C403.093079,455.736176 403.217224,455.860138 403.221527,456.876862 
	C403.633636,460.830109 403.615265,464.885834 404.527832,468.719971 
	C410.381500,493.313965 410.167725,517.848511 404.199158,542.356812 
	C398.842957,564.350647 397.373932,586.495605 403.219635,608.519958 
	C407.350616,624.083923 412.626862,639.348145 417.532928,654.701111 
	C426.098846,681.507263 422.782898,706.877014 408.571228,730.980286 
	C403.085663,740.283875 397.555206,749.560974 391.550476,759.030334 
	C391.386444,759.092834 391.222443,759.155273 390.121948,759.070068 
	C381.458557,759.056213 372.793793,759.125427 364.132538,758.982910 
	C361.159882,758.933960 359.982300,759.889771 360.015198,762.988220 
	C360.184906,778.976807 360.193420,794.967041 360.067169,811.543945 
	C359.995361,811.949219 359.923553,812.354553 359.308044,813.178101 
	C351.132263,826.825073 342.883972,840.429382 334.815338,854.139404 
	C331.441315,859.872498 332.603607,865.187378 337.420227,868.034363 
	C341.851013,870.653137 346.771301,868.747864 350.175629,863.174866 
	C353.366608,857.951294 356.625214,852.768982 360.002350,848.550354 
	C360.021698,852.378662 360.056946,856.206970 360.057800,860.035278 
	C360.063385,885.171021 360.013489,910.307129 360.171661,935.441895 
	C360.182068,937.090881 361.702087,940.115601 362.625549,940.157227 
	C370.871582,940.528992 379.141327,940.373840 387.764465,940.373840 
	C387.764465,937.877197 387.764465,936.065247 387.764465,934.253296 
	C387.764709,912.779663 387.830597,891.305725 387.701294,869.832825 
	C387.679474,866.204834 388.703796,864.725281 392.508575,864.926147 
	C396.985321,865.162415 401.500000,865.010559 405.982361,864.751953 
	C426.011749,863.596436 440.013794,853.030151 443.793884,833.402893 
	C446.049957,821.688782 445.035645,809.295959 445.014893,797.209045 
	C445.000854,789.040833 441.974854,781.670532 437.274017,774.962402 
	C431.129822,766.194397 422.023071,762.509705 412.529266,759.302063 
	C416.290405,753.028564 420.078094,746.770752 423.808044,740.478760 
	C438.199432,716.202393 444.029144,690.125732 437.849365,662.409973 
	C434.282440,646.412781 428.790405,630.817627 423.692108,615.195740 
	C416.809906,594.107544 415.552307,572.858276 420.717072,551.289551 
	C426.787659,525.938354 428.757812,500.450073 424.056854,474.622345 
	C422.876740,468.138794 422.275269,461.549927 421.720032,454.787659 
	C421.920837,454.612518 422.057465,454.396759 422.894165,454.071350 
	C431.818909,451.730835 439.069550,446.519043 446.753143,440.755707 
	C454.023132,441.182831 457.729431,444.238983 459.610626,452.125122 
	C465.973419,478.798859 473.502869,505.194092 480.574646,531.698914 
	C504.575043,621.651917 528.546204,711.612610 552.647949,801.538452 
	C553.716370,805.524780 553.480469,808.583130 551.192688,812.158081 
	C547.167542,818.447693 543.455627,825.011230 540.351746,831.798157 
	C536.487366,840.248108 533.120728,848.952271 530.033325,857.720642 
	C528.332336,862.551697 530.944763,867.085449 535.329712,868.630981 
	C539.809021,870.209961 544.291504,868.294312 546.531128,863.678467 
	C547.470520,861.742371 548.027832,859.624817 548.874084,857.638794 
	C552.511169,849.103882 556.191040,840.587219 560.174866,831.320740 
	C562.031921,835.335022 563.408142,838.309814 564.827637,841.852661 
	C564.886475,842.227966 564.945312,842.603271 564.575562,843.623047 
	C558.981384,875.634888 553.387207,907.646729 547.647400,940.491943 
	C555.940796,940.491943 563.397461,940.317627 570.840027,940.565857 
	C574.528137,940.688965 575.685730,939.235596 576.127380,935.760986 
	C577.489624,925.045593 579.279724,914.385132 580.706970,903.677063 
	C581.082214,900.861755 581.982422,899.622131 585.035217,899.697449 
	C592.688293,899.886353 600.351807,899.876953 608.005615,899.703186 
	C611.056274,899.633972 611.863098,900.838013 612.234436,903.709961 
	C613.640625,914.587708 615.292175,925.436462 617.067444,936.260681 
	C617.309204,937.734680 618.730713,940.160950 619.676147,940.194885 
	C628.230286,940.502258 636.799988,940.374939 645.727539,940.374939 
	C638.149048,896.510742 630.712708,853.469482 624.135925,810.560852 
	C628.921692,811.122192 630.419495,814.779724 631.847656,818.606628 
	C636.530151,831.153809 647.659912,837.911499 661.268494,837.436218 
	C661.288208,838.935669 661.309692,840.435181 661.327393,841.934631 
	C661.585205,863.752441 661.470825,885.583435 662.248535,907.382690 
	C662.669983,919.195435 667.756714,929.426086 677.782166,936.254700 
	C688.843811,943.789124 701.353088,945.050476 714.226440,942.655334 
	C730.761597,939.578857 741.953064,929.992126 744.927917,913.298767 
	C746.836670,902.587708 746.403625,891.448059 746.747559,880.491882 
	C746.773682,879.658813 744.699219,878.158447 743.467163,877.998047 
	C739.513428,877.483276 735.497986,877.426025 731.504150,877.239380 
	C720.130981,876.708008 720.323792,876.721680 720.056580,888.373169 
	C719.901306,895.145813 719.770752,902.080261 718.239807,908.616577 
	C716.568115,915.754089 710.782410,918.589050 702.652893,917.975403 
	C696.124146,917.482544 691.175598,913.156677 689.970703,906.499084 
	C689.410583,903.404053 689.219238,900.206909 689.204285,897.054382 
	C689.129150,881.222473 689.075806,865.389282 689.189514,849.557861 
	C689.327148,830.404236 689.639709,811.251892 690.159302,791.943298 
	C690.159302,791.943298 690.400208,791.728577 691.285767,791.828125 
	C696.726196,791.732666 699.108398,795.093933 700.812927,799.720947 
	C704.167480,808.827576 709.939575,815.425781 720.869934,817.311096 
M957.929626,704.367859 
	C972.791138,697.258728 987.679565,690.204895 1002.488892,682.988770 
	C1005.108826,681.712158 1006.854248,681.671875 1009.029419,683.940674 
	C1015.240479,690.419006 1022.987488,694.024170 1031.909180,695.052307 
	C1046.593018,696.744385 1060.911499,694.319580 1074.697754,689.780640 
	C1095.975952,682.775024 1106.085815,666.042114 1103.253662,643.703979 
	C1101.517822,630.012207 1099.090942,616.408142 1097.340820,602.717896 
	C1096.841675,598.813232 1095.540283,598.336975 1091.953613,598.904358 
	C1057.737427,604.317383 1023.490356,609.534973 989.251770,614.806091 
	C964.724609,618.582153 940.210571,622.447937 915.655151,626.030396 
	C911.839844,626.587036 911.032898,627.725037 911.802795,631.423157 
	C913.156860,637.927856 914.046326,644.539734 914.873047,651.138977 
	C915.261047,654.236389 916.521118,654.942871 919.512756,654.457275 
	C934.470642,652.029236 949.458618,649.786255 964.437317,647.486633 
	C974.239197,645.981689 984.043274,644.491333 994.151062,642.947876 
	C994.679993,646.130676 994.906372,648.789246 995.597412,651.321045 
	C996.449402,654.442505 995.664368,656.213989 992.539795,657.461243 
	C987.601990,659.432312 982.838013,661.838684 977.998779,664.057068 
	C960.302673,672.169128 942.590515,680.246460 924.937744,688.451660 
	C923.471497,689.133118 921.219543,690.819275 921.337891,691.795532 
	C922.446106,700.939941 923.992126,710.031311 925.537598,719.947205 
	C936.660767,714.613708 946.967773,709.671570 957.929626,704.367859 
M888.613831,492.112427 
	C911.199890,469.219177 933.840576,446.379333 956.320435,423.382263 
	C960.256958,419.355103 963.844116,414.889740 967.016968,410.234467 
	C972.284668,402.505798 975.067505,393.916351 974.347290,384.378326 
	C973.240112,369.714478 965.611816,358.694305 954.523926,349.947632 
	C936.860229,336.013885 915.275330,336.182983 898.947449,351.644257 
	C876.819946,372.597260 855.606812,394.519104 834.121399,416.144501 
	C828.612000,421.689819 823.266357,427.450867 818.355469,433.525116 
	C811.337341,442.205780 807.384827,452.184540 808.603088,463.559998 
	C810.526184,481.516479 821.033081,493.640869 836.095215,502.229950 
	C846.305054,508.052063 857.446411,509.465698 868.277405,504.789246 
	C875.323792,501.746826 881.513184,496.719299 888.613831,492.112427 
M947.373657,492.912231 
	C942.028076,495.627838 936.631714,498.248718 931.347107,501.078217 
	C919.317017,507.519440 907.022278,513.545166 895.426453,520.698425 
	C881.451721,529.319214 875.232910,544.598877 878.322144,559.797058 
	C880.493652,570.480103 885.217590,579.944031 892.626038,587.942627 
	C900.104004,596.016235 909.239258,600.342651 920.497253,600.214233 
	C929.641785,600.109863 937.735291,596.886353 945.630920,592.870605 
	C983.789307,573.463440 1021.921692,554.005188 1060.056396,534.551636 
	C1064.466064,532.302246 1068.832886,529.968933 1073.724609,527.410339 
	C1070.132446,520.367981 1066.514038,513.835571 1063.449341,507.053070 
	C1061.641479,503.052399 1059.875854,502.433594 1055.911621,504.506653 
	C1037.168579,514.308105 1018.273743,523.819824 999.419556,533.408386 
	C975.815979,545.412354 952.273499,557.540283 928.550354,569.303345 
	C919.550415,573.765869 911.716064,570.933777 907.395020,562.617004 
	C902.868774,553.905334 905.266174,546.309082 914.224670,541.118530 
	C916.240601,539.950500 918.317871,538.884216 920.394409,537.825073 
	C960.454468,517.392761 1000.519897,496.971039 1040.577637,476.534149 
	C1042.325317,475.642548 1044.009888,474.627319 1046.182251,473.413666 
	C1042.773560,466.724518 1039.251465,460.498688 1036.402344,453.978760 
	C1034.524414,449.681580 1032.640381,449.247498 1028.551758,451.367218 
	C1001.786621,465.243378 974.892212,478.870148 947.373657,492.912231 
M323.406464,497.507050 
	C321.366699,496.073486 319.195557,494.793762 317.308105,493.181885 
	C302.994568,480.958038 288.713867,468.695465 274.468018,456.392761 
	C261.736023,445.397400 248.904495,434.509308 236.423813,423.234100 
	C229.539108,417.014313 228.838531,409.164154 233.662521,402.660858 
	C239.246628,395.132843 246.058640,393.526703 254.667252,398.202515 
	C257.988770,400.006622 260.888702,402.622498 263.870880,405.005951 
	C266.956726,407.472290 269.909363,410.105377 273.389587,413.064606 
	C278.748444,406.338409 283.833191,400.211517 288.514984,393.790833 
	C289.178650,392.880707 288.451813,389.876282 287.398224,388.973206 
	C281.465057,383.887695 275.515625,378.728271 269.033386,374.400421 
	C261.413574,369.312958 252.781769,366.775024 243.448792,367.807556 
	C226.338120,369.700500 208.800674,385.520782 203.759262,403.007599 
	C200.368210,414.769836 202.243408,425.613129 209.421539,435.147034 
	C214.081818,441.336761 219.671936,446.963806 225.485550,452.121429 
	C241.558472,466.380768 257.897339,480.343750 274.268768,494.261932 
	C284.538849,502.993011 294.807617,511.761475 305.544800,519.895691 
	C313.868469,526.201416 323.569183,529.239746 334.201691,527.473999 
	C349.722137,524.896606 360.084930,515.169434 367.720367,502.216583 
	C376.691986,486.997009 376.182556,471.661987 364.978149,458.042755 
	C357.957611,449.509094 349.071747,442.492920 340.814270,435.026550 
	C340.156494,434.431824 337.407562,435.152893 336.418945,436.092285 
	C331.955811,440.333130 327.937500,445.045013 323.440582,449.246399 
	C320.277832,452.201233 320.660461,454.029846 323.848206,456.724182 
	C330.067230,461.980621 336.388489,467.259644 341.766785,473.327606 
	C347.351410,479.628418 347.299530,485.826263 343.216797,491.609497 
	C338.206451,498.706635 332.617950,500.528259 323.406464,497.507050 
M278.306946,697.763306 
	C284.742401,688.554565 287.342926,678.103088 287.359924,667.106201 
	C287.382935,652.191711 282.510651,639.027161 268.528656,632.129456 
	C251.971024,623.960938 234.165955,621.749512 216.075974,626.816772 
	C201.811478,630.812439 190.430084,639.935303 178.883438,648.737671 
	C171.088989,654.679565 163.221542,660.621643 154.861633,665.698975 
	C146.390778,670.843689 137.033264,670.680969 127.924561,666.942444 
	C122.408813,664.678589 119.759697,659.842590 120.320526,654.182190 
	C121.076698,646.550232 124.091301,642.052979 130.270233,640.923462 
	C134.282471,640.190002 138.537567,640.346741 142.637894,640.676392 
	C145.753906,640.926819 147.335052,640.565857 147.251053,636.952698 
	C147.158463,632.970093 147.582901,628.975098 147.791016,624.985901 
	C148.368591,613.915588 148.370239,613.917175 137.575806,612.713623 
	C136.914017,612.639771 136.257538,612.428345 135.598877,612.429810 
	C125.186882,612.452148 115.415329,614.450684 107.509521,621.878113 
	C96.587723,632.138977 93.453804,645.296021 93.909958,659.615173 
	C94.464027,677.008057 102.867523,688.829956 119.557953,694.341919 
	C138.928253,700.739014 157.833313,699.880493 175.143311,688.571045 
	C187.522751,680.483032 199.164139,671.250732 211.000290,662.350159 
	C222.243576,653.895325 234.480453,650.858704 248.159836,654.821106 
	C253.419586,656.344666 258.159821,658.588013 260.005157,664.423645 
	C263.840240,676.551453 254.897736,687.231079 242.201782,685.648254 
	C237.315857,685.039124 232.427536,684.449341 226.950836,683.778442 
	C226.655945,690.157104 226.339249,695.765808 226.148865,701.378845 
	C225.730957,713.700500 224.912323,711.320740 235.694244,712.703186 
	C251.935455,714.785706 267.063080,712.627075 278.306946,697.763306 
M284.105652,577.555786 
	C283.434265,579.078857 282.513550,580.543091 282.137665,582.135864 
	C280.947021,587.181396 278.391266,587.130188 274.199829,585.197021 
	C260.893555,579.059692 247.459244,573.191467 233.970139,567.464905 
	C230.494370,565.989380 229.435837,564.688171 231.230728,560.905518 
	C235.938629,550.983765 240.109421,540.808594 244.650513,530.805359 
	C245.900803,528.051208 245.390152,526.584778 242.595139,525.430054 
	C237.057602,523.142273 231.540405,520.777466 226.160767,518.146057 
	C223.038757,516.618958 221.502747,517.197693 220.142761,520.436157 
	C215.891937,530.558350 211.274155,540.526245 207.002350,550.640015 
	C205.650421,553.840759 204.116241,554.371399 200.955551,552.940613 
	C187.605057,546.897034 174.194412,540.979980 160.705215,535.253601 
	C157.337601,533.823975 156.603104,532.484253 158.205246,528.997192 
	C164.111649,516.141724 169.588898,503.089600 175.437180,490.206573 
	C176.844864,487.105652 176.607239,485.485748 173.252197,484.176758 
	C167.829865,482.061127 162.459763,479.753754 157.262253,477.140228 
	C153.848862,475.423859 152.440887,476.277008 150.984543,479.650970 
	C141.754395,501.034698 132.309128,522.325562 122.956841,543.656677 
	C122.252312,545.263611 121.718491,546.945312 120.971992,548.950378 
	C178.249695,574.139832 235.042740,599.116211 291.817688,624.084595 
	C292.484802,623.308472 292.919098,622.985962 293.109680,622.555542 
	C303.280396,599.587646 313.467651,576.626770 323.447205,553.575928 
	C323.846832,552.652893 322.616241,550.144897 321.533478,549.607178 
	C316.024139,546.870911 310.234894,544.701294 304.702576,542.007080 
	C301.492584,540.443787 300.014130,541.218750 298.662994,544.396301 
	C294.038513,555.272034 289.170013,566.044006 284.105652,577.555786 
M770.144409,848.500000 
	C770.144836,877.498962 770.177795,906.497925 770.098450,935.496704 
	C770.089966,938.596130 770.460266,940.554993 774.271729,940.539978 
	C797.603760,940.448425 820.936462,940.468262 844.268677,940.531616 
	C847.207581,940.539612 847.920898,939.218323 847.850586,936.549683 
	C847.705872,931.053772 847.534668,925.533386 847.894226,920.057190 
	C848.180115,915.702148 846.440430,914.760620 842.440002,914.825439 
	C829.277283,915.038574 816.106201,914.756104 802.944458,914.996582 
	C798.988647,915.068848 797.701416,913.933899 797.753967,909.949524 
	C797.945312,895.452576 797.944702,880.950134 797.751160,866.453247 
	C797.700378,862.649109 798.964539,861.626831 802.644226,861.709778 
	C812.805359,861.938660 822.978088,861.644348 833.139771,861.860046 
	C837.122009,861.944458 838.461365,860.499207 838.281372,856.625122 
	C838.041870,851.469849 838.030457,846.285278 838.288208,841.131653 
	C838.478027,837.337280 837.466919,835.819641 833.305298,835.944824 
	C823.148193,836.250305 812.970459,835.855042 802.812012,836.137390 
	C798.743896,836.250427 797.701538,834.851624 797.754761,830.996704 
	C797.943298,817.333191 797.972534,803.663025 797.741394,790.000793 
	C797.671448,785.868591 798.864014,784.579834 803.065735,784.661255 
	C816.393555,784.919434 829.730652,784.835388 843.060913,784.649841 
	C844.634827,784.627930 847.504456,783.217529 847.545471,782.346008 
	C847.902771,774.752747 847.751831,767.135559 847.751831,759.265869 
	C845.638672,759.166138 844.178162,759.037903 842.717529,759.037048 
	C820.385071,759.024048 798.051514,759.138550 775.721008,758.931763 
	C771.371216,758.891479 770.013489,760.029236 770.045410,764.503906 
	C770.242859,792.168091 770.144592,819.834412 770.144409,848.500000 
M789.231445,390.784393 
	C791.860657,385.768768 794.673279,380.838959 797.070496,375.714813 
	C799.806824,369.865875 803.714966,365.133453 808.577271,360.895782 
	C827.151917,344.707581 845.563416,328.332214 864.016785,312.005157 
	C870.565979,306.210693 877.060791,300.354858 884.313293,293.871918 
	C875.570679,289.308044 867.716980,285.051208 859.668274,281.201935 
	C858.642639,280.711395 856.246399,281.971039 855.080933,283.058441 
	C841.202881,296.007233 827.449402,309.089447 813.629211,322.100494 
	C811.795532,323.826843 809.772949,325.352631 806.996765,327.674896 
	C807.133728,325.067261 807.105469,323.760284 807.284058,322.482239 
	C810.069641,302.543854 812.812378,282.598907 815.756653,262.683807 
	C816.249084,259.352875 815.502197,257.477295 812.390869,255.972397 
	C805.800598,252.784805 799.405579,249.195206 792.893738,245.841873 
	C791.971863,245.367142 790.844055,245.292526 789.796936,245.029068 
	C789.510010,245.936218 789.279175,246.399094 789.222839,246.882324 
	C785.487427,278.945282 781.858948,311.021149 777.949585,343.062775 
	C777.318542,348.234802 776.312195,353.695129 773.995239,358.270569 
	C762.865234,380.249603 751.222839,401.969086 739.773621,423.786621 
	C739.023193,425.216766 738.366638,426.696167 737.423950,428.657013 
	C745.868591,433.090393 753.901367,437.307526 762.398743,441.768555 
	C771.402954,424.664398 780.148315,408.051971 789.231445,390.784393 
M493.752350,800.500000 
	C493.752350,786.767456 493.752350,773.034912 493.752350,759.027954 
	C485.850983,759.027954 478.856812,759.280640 471.892029,758.937317 
	C467.400452,758.715820 465.921570,759.952148 465.935547,764.702393 
	C466.101990,821.331116 466.040741,877.960449 466.054352,934.589661 
	C466.054749,936.346313 466.218903,938.103027 466.319885,940.123352 
	C491.072266,940.123352 515.303406,940.123352 539.572266,940.123352 
	C539.572266,931.498169 539.572266,923.252686 539.572266,914.462402 
	C537.655396,914.462402 536.030334,914.462341 534.405334,914.462402 
	C523.079529,914.462769 511.753662,914.470520 500.427826,914.460510 
	C493.772583,914.454590 493.756531,914.441895 493.755463,907.929565 
	C493.749603,872.453064 493.752319,836.976501 493.752350,800.500000 
z"/>
<path fill="#FD17C6" opacity="1.000000" stroke="none" 
	d="
M448.368347,384.277740 
	C453.920258,374.887146 461.971588,369.775848 473.605164,369.933472 
	C474.153931,370.008789 474.431091,370.111755 474.414429,370.481689 
	C477.978058,386.130219 481.558350,401.408844 485.200073,416.949677 
	C492.804321,415.182037 499.714050,413.579437 506.621277,411.966003 
	C507.588562,411.740082 508.529480,411.352753 509.506653,411.227020 
	C512.487488,410.843384 512.761780,409.177032 512.109741,406.624329 
	C511.209656,403.100586 510.618683,399.497925 510.202515,395.769989 
	C514.955017,393.012787 516.333008,389.355133 515.319946,384.221344 
	C513.393799,374.460449 515.475708,365.708038 523.357300,358.992554 
	C530.980591,372.404785 538.282227,385.615479 545.791992,398.706787 
	C546.594971,400.106567 548.830811,401.902496 550.030151,401.661835 
	C558.742737,399.913757 567.359985,397.690033 576.860168,395.412262 
	C573.907654,390.235809 571.260132,385.721100 568.734863,381.138977 
	C564.120422,372.766113 559.578308,364.353394 555.006042,355.957306 
	C561.855286,358.567505 564.723145,364.421417 567.075562,370.718323 
	C569.519287,377.259705 575.030273,379.664124 580.377869,376.403351 
	C584.224670,374.057739 585.413086,370.573120 584.421631,366.137299 
	C582.546387,357.747192 583.974304,349.993561 589.718750,343.414795 
	C589.883606,346.679718 589.712646,349.661804 589.515259,352.642120 
	C588.637390,365.893555 587.739685,379.143646 586.881653,392.396332 
	C586.741211,394.565430 586.442993,396.804199 589.766907,397.015381 
	C609.468872,398.267303 629.166138,399.594086 649.001831,400.997925 
	C649.138733,401.100128 649.446411,401.244171 649.544067,401.634338 
	C651.811096,410.333221 653.980530,418.641937 656.333069,427.652069 
	C661.999817,422.942596 667.088928,418.720856 672.169800,414.489014 
	C684.712341,404.042236 697.295410,393.643372 709.776184,383.123260 
	C718.339111,375.905609 719.558350,364.917511 712.864807,357.017670 
	C706.573059,349.591919 695.969482,348.654358 687.787231,355.157593 
	C679.575317,361.684448 671.623108,368.538025 663.119751,375.296783 
	C648.944031,374.496887 635.206055,373.643982 621.467163,372.804657 
	C619.017456,372.655029 616.720581,372.488037 617.016479,369.017242 
	C617.987793,357.622986 618.890137,346.222900 619.819031,334.825043 
	C628.159790,337.714325 633.427673,343.596100 635.986023,351.885498 
	C637.795288,357.747711 639.250671,363.719086 641.090820,370.474487 
	C644.684265,367.587799 647.871948,365.111938 650.966675,362.524841 
	C659.401917,355.473022 667.751221,348.317871 676.219788,341.306488 
	C691.121887,328.968445 712.799683,330.305695 725.412292,344.260223 
	C738.748535,359.015320 738.663147,380.738525 723.976807,394.099640 
	C707.973145,408.659210 690.983521,422.135406 674.415405,436.074036 
	C671.101196,438.862244 667.702332,441.551880 664.441589,444.400482 
	C663.326965,445.374207 662.515930,446.695465 660.505554,449.156097 
	C678.989197,447.839233 692.542419,453.739777 700.131836,469.405182 
	C707.739441,485.108337 703.655212,499.142334 691.899292,511.771698 
	C706.573486,515.335327 716.614319,523.829590 720.449646,538.264038 
	C724.315735,552.814209 719.361816,565.075439 708.411133,575.222961 
	C736.959290,586.478516 737.685303,620.620972 711.889709,634.562134 
	C714.633301,645.010315 717.367310,655.592407 720.192566,666.150208 
	C730.813232,705.839233 741.480103,745.515869 752.088867,785.208130 
	C754.208008,793.136780 752.359070,800.355896 747.384216,806.715820 
	C746.677856,801.002197 746.744141,795.492981 745.908203,790.124146 
	C744.056824,778.233948 739.195740,768.059509 727.784485,761.880249 
	C727.380371,761.417236 727.144592,761.156494 726.874756,760.611938 
	C726.555298,760.204224 726.269958,760.080322 725.979736,759.981079 
	C725.974915,760.005859 726.024109,760.013855 726.194336,759.619141 
	C726.099243,757.920715 725.900452,756.599243 725.558838,755.315796 
	C717.044189,723.328003 708.519470,691.342834 699.982239,659.361084 
	C698.587524,654.136353 697.125671,648.929626 695.829529,644.205627 
	C689.551025,644.848145 684.005127,645.415649 678.162109,646.013611 
	C678.244629,646.549500 678.304688,647.495056 678.541260,648.394104 
	C683.493408,667.214417 688.432861,686.038208 693.448730,704.841614 
	C695.621582,712.987488 693.663269,716.710571 685.593933,718.881165 
	C662.788452,725.015930 640.000183,731.220154 617.133911,737.120605 
	C609.142273,739.182861 600.978760,741.539490 592.829773,741.806030 
	C580.590698,742.206421 570.810425,732.790710 568.315063,720.237976 
	C566.027588,708.731018 572.253601,696.705078 583.279785,691.332703 
	C593.851440,686.181763 608.136292,688.815002 614.900330,698.321350 
	C618.660706,703.606262 620.505981,710.253906 623.507568,716.940491 
	C628.035706,715.719788 633.754211,714.178162 639.687378,712.578613 
	C639.310974,710.725281 639.065918,709.102112 638.647949,707.524902 
	C634.216858,690.803162 629.563232,674.136658 625.434204,657.341064 
	C624.296692,652.713745 622.410706,652.485779 618.484497,653.579163 
	C605.668701,657.147888 592.813110,660.598755 579.884766,663.731445 
	C565.194214,667.291138 551.863220,658.705811 547.684509,643.385315 
	C544.312317,631.021729 552.890930,616.304810 565.803162,612.302246 
	C579.550049,608.041077 594.121460,615.149231 598.984985,628.726868 
	C600.197144,632.110840 600.591309,635.787781 601.456421,639.766907 
	C618.981934,635.048462 636.545166,630.319885 654.518738,625.480835 
	C650.674194,612.347534 653.356323,601.087036 662.745117,591.341431 
	C648.797119,587.234619 639.409180,578.927673 635.923096,565.101074 
	C632.430237,551.247620 636.754822,539.367432 646.853394,529.330566 
	C634.237488,524.808594 630.599182,522.808777 625.387146,516.393921 
	C623.469971,514.034302 621.861084,513.752014 619.031494,514.525635 
	C599.619324,519.833313 580.134094,524.872864 560.693176,530.076477 
	C541.594360,535.188477 522.520081,540.392456 503.196472,545.620667 
	C503.524536,547.248901 503.737152,548.701050 504.112488,550.109802 
	C517.260498,599.455322 530.438721,648.792725 543.580017,698.140015 
	C552.868530,733.019409 562.110046,767.911377 571.345093,803.237366 
	C569.139832,816.212891 566.962097,828.748779 564.784363,841.284668 
	C563.408142,838.309814 562.031921,835.335022 560.174866,831.320740 
	C556.191040,840.587219 552.511169,849.103882 548.874084,857.638794 
	C548.027832,859.624817 547.470520,861.742371 546.531128,863.678467 
	C544.291504,868.294312 539.809021,870.209961 535.329712,868.630981 
	C530.944763,867.085449 528.332336,862.551697 530.033325,857.720642 
	C533.120728,848.952271 536.487366,840.248108 540.351746,831.798157 
	C543.455627,825.011230 547.167542,818.447693 551.192688,812.158081 
	C553.480469,808.583130 553.716370,805.524780 552.647949,801.538452 
	C528.546204,711.612610 504.575043,621.651917 480.574646,531.698914 
	C473.502869,505.194092 465.973419,478.798859 459.610626,452.125122 
	C457.729431,444.238983 454.023132,441.182831 446.375275,440.522980 
	C445.997406,440.290253 445.993225,439.934753 446.294495,439.794678 
	C449.566681,435.319305 453.367615,431.331573 455.355316,426.584595 
	C461.699768,411.432800 456.853790,397.820282 448.330139,384.824097 
	C448.363220,384.643982 448.368347,384.277740 448.368347,384.277740 
M585.841919,422.074585 
	C584.545776,422.824493 583.191711,423.490417 581.962708,424.337646 
	C572.713867,430.713593 568.579102,439.678741 570.253296,450.634552 
	C571.965271,461.837585 578.786011,469.394226 589.806885,472.314667 
	C600.552612,475.162231 610.003052,472.345184 617.214050,463.685425 
	C624.931152,454.417938 625.466797,441.087982 618.840210,431.643738 
	C611.405823,421.048126 599.805542,417.517090 585.841919,422.074585 
M685.944946,485.350372 
	C685.335876,471.805267 673.302795,463.170349 661.428894,468.390289 
	C654.473633,471.447906 647.805542,475.460419 641.624329,479.900879 
	C633.904175,485.446838 632.686401,496.223694 638.057617,504.042297 
	C643.186707,511.508484 653.432861,513.715942 661.624695,509.097565 
	C665.972351,506.646454 670.285278,504.133392 674.637329,501.690033 
	C680.777588,498.242615 685.049011,493.458466 685.944946,485.350372 
M671.629456,535.112488 
	C668.020569,537.161865 664.317017,539.062683 660.822144,541.290894 
	C653.106812,546.209778 650.555237,556.348389 654.798462,564.569336 
	C659.026733,572.761536 668.963989,576.610657 677.335022,572.592590 
	C684.047302,569.370667 690.504822,565.509338 696.724854,561.401001 
	C702.855957,557.351501 705.152527,549.481628 703.051025,542.395691 
	C700.803223,534.816345 694.780029,530.267456 687.031677,529.673523 
	C681.259644,529.231140 676.839294,532.043335 671.629456,535.112488 
M676.367676,625.309509 
	C680.755249,628.051514 685.340881,628.755493 690.007385,626.201416 
	C695.385925,623.257751 700.738953,620.250183 705.952026,617.026062 
	C712.699646,612.852722 714.665649,605.491272 711.040588,598.944153 
	C707.453857,592.466248 699.553772,590.225037 692.552551,593.904785 
	C687.712830,596.448364 682.931824,599.131042 678.289368,602.016785 
	C668.996704,607.793030 668.026245,617.111511 676.367676,625.309509 
M551.105286,449.334991 
	C550.338440,446.442383 549.733826,443.494385 548.768738,440.669495 
	C547.100220,435.785461 542.666870,433.272522 538.265686,434.476349 
	C533.131714,435.880615 530.430725,440.215088 531.782104,445.608154 
	C534.570007,456.734192 537.487610,467.830170 540.543152,478.885651 
	C542.126648,484.615051 547.044556,487.794342 551.635742,486.493683 
	C556.974182,484.981384 559.374084,480.315460 557.783508,474.204437 
	C555.689697,466.159973 553.473877,458.147308 551.105286,449.334991 
M523.394043,484.144867 
	C520.463806,473.057800 517.630798,461.943756 514.562805,450.894928 
	C513.003357,445.278900 508.541962,442.536438 503.738647,443.771027 
	C498.471344,445.124939 495.820404,449.610016 497.291656,455.412628 
	C500.069244,466.367310 502.994263,477.286591 506.021515,488.175110 
	C507.548157,493.666077 512.114380,496.797607 516.664124,495.885010 
	C521.480408,494.918976 524.058716,490.887573 523.394043,484.144867 
z"/>
<path fill="#3662A8" opacity="1.000000" stroke="none" 
	d="
M957.602173,704.548645 
	C946.967773,709.671570 936.660767,714.613708 925.537598,719.947205 
	C923.992126,710.031311 922.446106,700.939941 921.337891,691.795532 
	C921.219543,690.819275 923.471497,689.133118 924.937744,688.451660 
	C942.590515,680.246460 960.302673,672.169128 977.998779,664.057068 
	C982.838013,661.838684 987.601990,659.432312 992.539795,657.461243 
	C995.664368,656.213989 996.449402,654.442505 995.597412,651.321045 
	C994.906372,648.789246 994.679993,646.130676 994.151062,642.947876 
	C984.043274,644.491333 974.239197,645.981689 964.437317,647.486633 
	C949.458618,649.786255 934.470642,652.029236 919.512756,654.457275 
	C916.521118,654.942871 915.261047,654.236389 914.873047,651.138977 
	C914.046326,644.539734 913.156860,637.927856 911.802795,631.423157 
	C911.032898,627.725037 911.839844,626.587036 915.655151,626.030396 
	C940.210571,622.447937 964.724609,618.582153 989.251770,614.806091 
	C1023.490356,609.534973 1057.737427,604.317383 1091.953613,598.904358 
	C1095.540283,598.336975 1096.841675,598.813232 1097.340820,602.717896 
	C1099.090942,616.408142 1101.517822,630.012207 1103.253662,643.703979 
	C1106.085815,666.042114 1095.975952,682.775024 1074.697754,689.780640 
	C1060.911499,694.319580 1046.593018,696.744385 1031.909180,695.052307 
	C1022.987488,694.024170 1015.240479,690.419006 1009.029419,683.940674 
	C1006.854248,681.671875 1005.108826,681.712158 1002.488892,682.988770 
	C987.679565,690.204895 972.791138,697.258728 957.602173,704.548645 
M1027.949097,662.613586 
	C1031.103760,663.985291 1034.386719,666.750488 1037.389648,666.473999 
	C1047.390747,665.553345 1057.451660,664.175354 1067.172974,661.719482 
	C1073.435913,660.137268 1076.794312,654.425171 1076.789185,647.915649 
	C1076.784668,642.225037 1075.619507,636.535400 1074.921143,630.444153 
	C1056.396851,633.290466 1038.722534,636.006165 1020.385864,638.823608 
	C1022.164612,647.122742 1021.271301,655.577209 1027.949097,662.613586 
z"/>
<path fill="#3662A8" opacity="1.000000" stroke="none" 
	d="
M888.350159,492.346802 
	C881.513184,496.719299 875.323792,501.746826 868.277405,504.789246 
	C857.446411,509.465698 846.305054,508.052063 836.095215,502.229950 
	C821.033081,493.640869 810.526184,481.516479 808.603088,463.559998 
	C807.384827,452.184540 811.337341,442.205780 818.355469,433.525116 
	C823.266357,427.450867 828.612000,421.689819 834.121399,416.144501 
	C855.606812,394.519104 876.819946,372.597260 898.947449,351.644257 
	C915.275330,336.182983 936.860229,336.013885 954.523926,349.947632 
	C965.611816,358.694305 973.240112,369.714478 974.347290,384.378326 
	C975.067505,393.916351 972.284668,402.505798 967.016968,410.234467 
	C963.844116,414.889740 960.256958,419.355103 956.320435,423.382263 
	C933.840576,446.379333 911.199890,469.219177 888.350159,492.346802 
M875.012634,465.513306 
	C895.351318,444.849854 915.725769,424.221405 935.988159,403.483337 
	C938.877075,400.526550 941.520752,397.230194 943.754456,393.754547 
	C947.883606,387.329529 947.041931,379.894897 942.020203,374.409180 
	C936.037903,367.873962 929.609375,366.061157 922.385986,370.051788 
	C917.964233,372.494598 914.002380,376.040588 910.403809,379.658051 
	C889.368591,400.803741 868.482178,422.097565 847.601807,443.396667 
	C844.810730,446.243713 842.055725,449.205048 839.775452,452.457977 
	C834.555542,459.904572 835.479126,467.761444 841.951477,474.105865 
	C848.213501,480.244080 856.011963,481.051025 863.226807,475.811249 
	C867.242737,472.894653 870.769043,469.303741 875.012634,465.513306 
z"/>
<path fill="#3663A8" opacity="1.000000" stroke="none" 
	d="
M947.706848,492.745300 
	C974.892212,478.870148 1001.786621,465.243378 1028.551758,451.367218 
	C1032.640381,449.247498 1034.524414,449.681580 1036.402344,453.978760 
	C1039.251465,460.498688 1042.773560,466.724518 1046.182251,473.413666 
	C1044.009888,474.627319 1042.325317,475.642548 1040.577637,476.534149 
	C1000.519897,496.971039 960.454468,517.392761 920.394409,537.825073 
	C918.317871,538.884216 916.240601,539.950500 914.224670,541.118530 
	C905.266174,546.309082 902.868774,553.905334 907.395020,562.617004 
	C911.716064,570.933777 919.550415,573.765869 928.550354,569.303345 
	C952.273499,557.540283 975.815979,545.412354 999.419556,533.408386 
	C1018.273743,523.819824 1037.168579,514.308105 1055.911621,504.506653 
	C1059.875854,502.433594 1061.641479,503.052399 1063.449341,507.053070 
	C1066.514038,513.835571 1070.132446,520.367981 1073.724609,527.410339 
	C1068.832886,529.968933 1064.466064,532.302246 1060.056396,534.551636 
	C1021.921692,554.005188 983.789307,573.463440 945.630920,592.870605 
	C937.735291,596.886353 929.641785,600.109863 920.497253,600.214233 
	C909.239258,600.342651 900.104004,596.016235 892.626038,587.942627 
	C885.217590,579.944031 880.493652,570.480103 878.322144,559.797058 
	C875.232910,544.598877 881.451721,529.319214 895.426453,520.698425 
	C907.022278,513.545166 919.317017,507.519440 931.347107,501.078217 
	C936.631714,498.248718 942.028076,495.627838 947.706848,492.745300 
z"/>
<path fill="#3663A8" opacity="1.000000" stroke="none" 
	d="
M323.766663,497.669617 
	C332.617950,500.528259 338.206451,498.706635 343.216797,491.609497 
	C347.299530,485.826263 347.351410,479.628418 341.766785,473.327606 
	C336.388489,467.259644 330.067230,461.980621 323.848206,456.724182 
	C320.660461,454.029846 320.277832,452.201233 323.440582,449.246399 
	C327.937500,445.045013 331.955811,440.333130 336.418945,436.092285 
	C337.407562,435.152893 340.156494,434.431824 340.814270,435.026550 
	C349.071747,442.492920 357.957611,449.509094 364.978149,458.042755 
	C376.182556,471.661987 376.691986,486.997009 367.720367,502.216583 
	C360.084930,515.169434 349.722137,524.896606 334.201691,527.473999 
	C323.569183,529.239746 313.868469,526.201416 305.544800,519.895691 
	C294.807617,511.761475 284.538849,502.993011 274.268768,494.261932 
	C257.897339,480.343750 241.558472,466.380768 225.485550,452.121429 
	C219.671936,446.963806 214.081818,441.336761 209.421539,435.147034 
	C202.243408,425.613129 200.368210,414.769836 203.759262,403.007599 
	C208.800674,385.520782 226.338120,369.700500 243.448792,367.807556 
	C252.781769,366.775024 261.413574,369.312958 269.033386,374.400421 
	C275.515625,378.728271 281.465057,383.887695 287.398224,388.973206 
	C288.451813,389.876282 289.178650,392.880707 288.514984,393.790833 
	C283.833191,400.211517 278.748444,406.338409 273.389587,413.064606 
	C269.909363,410.105377 266.956726,407.472290 263.870880,405.005951 
	C260.888702,402.622498 257.988770,400.006622 254.667252,398.202515 
	C246.058640,393.526703 239.246628,395.132843 233.662521,402.660858 
	C228.838531,409.164154 229.539108,417.014313 236.423813,423.234100 
	C248.904495,434.509308 261.736023,445.397400 274.468018,456.392761 
	C288.713867,468.695465 302.994568,480.958038 317.308105,493.181885 
	C319.195557,494.793762 321.366699,496.073486 323.766663,497.669617 
z"/>
<path fill="#3662A8" opacity="1.000000" stroke="none" 
	d="
M278.102692,698.058777 
	C267.063080,712.627075 251.935455,714.785706 235.694244,712.703186 
	C224.912323,711.320740 225.730957,713.700500 226.148865,701.378845 
	C226.339249,695.765808 226.655945,690.157104 226.950836,683.778442 
	C232.427536,684.449341 237.315857,685.039124 242.201782,685.648254 
	C254.897736,687.231079 263.840240,676.551453 260.005157,664.423645 
	C258.159821,658.588013 253.419586,656.344666 248.159836,654.821106 
	C234.480453,650.858704 222.243576,653.895325 211.000290,662.350159 
	C199.164139,671.250732 187.522751,680.483032 175.143311,688.571045 
	C157.833313,699.880493 138.928253,700.739014 119.557953,694.341919 
	C102.867523,688.829956 94.464027,677.008057 93.909958,659.615173 
	C93.453804,645.296021 96.587723,632.138977 107.509521,621.878113 
	C115.415329,614.450684 125.186882,612.452148 135.598877,612.429810 
	C136.257538,612.428345 136.914017,612.639771 137.575806,612.713623 
	C148.370239,613.917175 148.368591,613.915588 147.791016,624.985901 
	C147.582901,628.975098 147.158463,632.970093 147.251053,636.952698 
	C147.335052,640.565857 145.753906,640.926819 142.637894,640.676392 
	C138.537567,640.346741 134.282471,640.190002 130.270233,640.923462 
	C124.091301,642.052979 121.076698,646.550232 120.320526,654.182190 
	C119.759697,659.842590 122.408813,664.678589 127.924561,666.942444 
	C137.033264,670.680969 146.390778,670.843689 154.861633,665.698975 
	C163.221542,660.621643 171.088989,654.679565 178.883438,648.737671 
	C190.430084,639.935303 201.811478,630.812439 216.075974,626.816772 
	C234.165955,621.749512 251.971024,623.960938 268.528656,632.129456 
	C282.510651,639.027161 287.382935,652.191711 287.359924,667.106201 
	C287.342926,678.103088 284.742401,688.554565 278.102692,698.058777 
z"/>
<path fill="#3662A8" opacity="1.000000" stroke="none" 
	d="
M474.042114,369.912109 
	C467.542938,342.233154 461.172180,314.647064 454.761902,287.070129 
	C451.065735,271.169464 447.300110,255.284958 443.583984,239.388916 
	C443.246368,237.944717 443.042236,236.469299 442.643066,234.278214 
	C449.017822,232.770950 455.237152,231.247528 461.481812,229.836288 
	C470.890747,227.709915 480.251465,225.273209 489.750153,223.660568 
	C510.238464,220.182220 527.033020,229.014786 534.941345,248.198380 
	C541.372009,263.797424 546.400085,280.099060 542.893738,297.245239 
	C541.645691,303.348297 538.056641,309.135559 534.741211,314.583160 
	C533.117798,317.250702 532.534363,318.860809 534.176514,321.613861 
	C540.229980,331.762085 546.043518,342.053497 551.602722,352.636963 
	C540.942749,349.173157 531.778870,351.886688 523.019409,357.641296 
	C518.278931,349.220001 513.788025,341.055023 509.096100,333.007294 
	C508.399994,331.813324 506.645844,330.300110 505.569916,330.435364 
	C502.031067,330.880310 498.578949,332.015533 494.904785,332.932739 
	C495.218811,334.457703 495.396179,335.413940 495.613647,336.360901 
	C500.158417,356.150665 504.707794,375.939392 508.828979,395.807251 
	C501.560913,396.068573 499.926300,394.904785 497.587646,388.186920 
	C493.876373,377.526428 485.331543,370.856598 474.431091,370.111755 
	C474.431091,370.111755 474.153931,370.008789 474.042114,369.912109 
M510.124481,299.649719 
	C513.864319,296.087738 515.894653,291.576874 514.956909,286.609863 
	C513.245544,277.544495 511.444641,268.407135 508.522766,259.687958 
	C506.273041,252.974472 500.330658,249.552246 493.141663,250.153290 
	C487.614532,250.615372 482.178040,252.161575 476.156342,253.331558 
	C480.457184,271.665161 484.594604,289.302094 488.997253,308.069672 
	C496.420074,305.197906 502.988098,302.656830 510.124481,299.649719 
z"/>
<path fill="#3662A8" opacity="1.000000" stroke="none" 
	d="
M284.250122,577.205688 
	C289.170013,566.044006 294.038513,555.272034 298.662994,544.396301 
	C300.014130,541.218750 301.492584,540.443787 304.702576,542.007080 
	C310.234894,544.701294 316.024139,546.870911 321.533478,549.607178 
	C322.616241,550.144897 323.846832,552.652893 323.447205,553.575928 
	C313.467651,576.626770 303.280396,599.587646 293.109680,622.555542 
	C292.919098,622.985962 292.484802,623.308472 291.817688,624.084595 
	C235.042740,599.116211 178.249695,574.139832 120.971992,548.950378 
	C121.718491,546.945312 122.252312,545.263611 122.956841,543.656677 
	C132.309128,522.325562 141.754395,501.034698 150.984543,479.650970 
	C152.440887,476.277008 153.848862,475.423859 157.262253,477.140228 
	C162.459763,479.753754 167.829865,482.061127 173.252197,484.176758 
	C176.607239,485.485748 176.844864,487.105652 175.437180,490.206573 
	C169.588898,503.089600 164.111649,516.141724 158.205246,528.997192 
	C156.603104,532.484253 157.337601,533.823975 160.705215,535.253601 
	C174.194412,540.979980 187.605057,546.897034 200.955551,552.940613 
	C204.116241,554.371399 205.650421,553.840759 207.002350,550.640015 
	C211.274155,540.526245 215.891937,530.558350 220.142761,520.436157 
	C221.502747,517.197693 223.038757,516.618958 226.160767,518.146057 
	C231.540405,520.777466 237.057602,523.142273 242.595139,525.430054 
	C245.390152,526.584778 245.900803,528.051208 244.650513,530.805359 
	C240.109421,540.808594 235.938629,550.983765 231.230728,560.905518 
	C229.435837,564.688171 230.494370,565.989380 233.970139,567.464905 
	C247.459244,573.191467 260.893555,579.059692 274.199829,585.197021 
	C278.391266,587.130188 280.947021,587.181396 282.137665,582.135864 
	C282.513550,580.543091 283.434265,579.078857 284.250122,577.205688 
z"/>
<path fill="#3662A8" opacity="1.000000" stroke="none" 
	d="
M770.144531,848.000000 
	C770.144592,819.834412 770.242859,792.168091 770.045410,764.503906 
	C770.013489,760.029236 771.371216,758.891479 775.721008,758.931763 
	C798.051514,759.138550 820.385071,759.024048 842.717529,759.037048 
	C844.178162,759.037903 845.638672,759.166138 847.751831,759.265869 
	C847.751831,767.135559 847.902771,774.752747 847.545471,782.346008 
	C847.504456,783.217529 844.634827,784.627930 843.060913,784.649841 
	C829.730652,784.835388 816.393555,784.919434 803.065735,784.661255 
	C798.864014,784.579834 797.671448,785.868591 797.741394,790.000793 
	C797.972534,803.663025 797.943298,817.333191 797.754761,830.996704 
	C797.701538,834.851624 798.743896,836.250427 802.812012,836.137390 
	C812.970459,835.855042 823.148193,836.250305 833.305298,835.944824 
	C837.466919,835.819641 838.478027,837.337280 838.288208,841.131653 
	C838.030457,846.285278 838.041870,851.469849 838.281372,856.625122 
	C838.461365,860.499207 837.122009,861.944458 833.139771,861.860046 
	C822.978088,861.644348 812.805359,861.938660 802.644226,861.709778 
	C798.964539,861.626831 797.700378,862.649109 797.751160,866.453247 
	C797.944702,880.950134 797.945312,895.452576 797.753967,909.949524 
	C797.701416,913.933899 798.988647,915.068848 802.944458,914.996582 
	C816.106201,914.756104 829.277283,915.038574 842.440002,914.825439 
	C846.440430,914.760620 848.180115,915.702148 847.894226,920.057190 
	C847.534668,925.533386 847.705872,931.053772 847.850586,936.549683 
	C847.920898,939.218323 847.207581,940.539612 844.268677,940.531616 
	C820.936462,940.468262 797.603760,940.448425 774.271729,940.539978 
	C770.460266,940.554993 770.089966,938.596130 770.098450,935.496704 
	C770.177795,906.497925 770.144836,877.498962 770.144531,848.000000 
z"/>
<path fill="#3662A8" opacity="1.000000" stroke="none" 
	d="
M789.062561,391.111938 
	C780.148315,408.051971 771.402954,424.664398 762.398743,441.768555 
	C753.901367,437.307526 745.868591,433.090393 737.423950,428.657013 
	C738.366638,426.696167 739.023193,425.216766 739.773621,423.786621 
	C751.222839,401.969086 762.865234,380.249603 773.995239,358.270569 
	C776.312195,353.695129 777.318542,348.234802 777.949585,343.062775 
	C781.858948,311.021149 785.487427,278.945282 789.222839,246.882324 
	C789.279175,246.399094 789.510010,245.936218 789.796936,245.029068 
	C790.844055,245.292526 791.971863,245.367142 792.893738,245.841873 
	C799.405579,249.195206 805.800598,252.784805 812.390869,255.972397 
	C815.502197,257.477295 816.249084,259.352875 815.756653,262.683807 
	C812.812378,282.598907 810.069641,302.543854 807.284058,322.482239 
	C807.105469,323.760284 807.133728,325.067261 806.996765,327.674896 
	C809.772949,325.352631 811.795532,323.826843 813.629211,322.100494 
	C827.449402,309.089447 841.202881,296.007233 855.080933,283.058441 
	C856.246399,281.971039 858.642639,280.711395 859.668274,281.201935 
	C867.716980,285.051208 875.570679,289.308044 884.313293,293.871918 
	C877.060791,300.354858 870.565979,306.210693 864.016785,312.005157 
	C845.563416,328.332214 827.151917,344.707581 808.577271,360.895782 
	C803.714966,365.133453 799.806824,369.865875 797.070496,375.714813 
	C794.673279,380.838959 791.860657,385.768768 789.062561,391.111938 
z"/>
<path fill="#3662A8" opacity="1.000000" stroke="none" 
	d="
M412.190735,759.981567 
	C422.023071,762.509705 431.129822,766.194397 437.274017,774.962402 
	C441.974854,781.670532 445.000854,789.040833 445.014893,797.209045 
	C445.035645,809.295959 446.049957,821.688782 443.793884,833.402893 
	C440.013794,853.030151 426.011749,863.596436 405.982361,864.751953 
	C401.500000,865.010559 396.985321,865.162415 392.508575,864.926147 
	C388.703796,864.725281 387.679474,866.204834 387.701294,869.832825 
	C387.830597,891.305725 387.764709,912.779663 387.764465,934.253296 
	C387.764465,936.065247 387.764465,937.877197 387.764465,940.373840 
	C379.141327,940.373840 370.871582,940.528992 362.625549,940.157227 
	C361.702087,940.115601 360.182068,937.090881 360.171661,935.441895 
	C360.013489,910.307129 360.063385,885.171021 360.057800,860.035278 
	C360.056946,856.206970 360.021698,852.378662 359.982971,847.785400 
	C360.059540,846.656799 360.155487,846.293213 360.480225,845.701782 
	C366.683838,835.571533 372.577209,825.618469 378.670654,815.789429 
	C381.401947,811.383728 384.534027,807.226440 387.582855,803.418335 
	C387.706940,811.530273 387.747406,819.180420 387.754517,826.830505 
	C387.766663,839.833618 387.757843,839.833618 400.684601,839.257446 
	C410.864075,838.803833 416.959564,833.483276 417.715637,823.377930 
	C418.272308,815.937683 418.260071,808.394775 417.748383,800.949341 
	C417.051147,790.804443 411.073181,785.428833 400.940186,784.827332 
	C399.949249,784.768555 398.964203,784.610901 398.036316,784.174011 
	C399.123596,781.985291 400.149078,780.120667 401.178741,778.258362 
	C404.489288,772.270752 407.801300,766.283875 411.288147,760.229980 
	C411.704742,760.097778 411.947113,760.037170 412.190735,759.981567 
z"/>
<path fill="#3662A8" opacity="1.000000" stroke="none" 
	d="
M493.752197,801.000000 
	C493.752319,836.976501 493.749603,872.453064 493.755463,907.929565 
	C493.756531,914.441895 493.772583,914.454590 500.427826,914.460510 
	C511.753662,914.470520 523.079529,914.462769 534.405334,914.462402 
	C536.030334,914.462341 537.655396,914.462402 539.572266,914.462402 
	C539.572266,923.252686 539.572266,931.498169 539.572266,940.123352 
	C515.303406,940.123352 491.072266,940.123352 466.319885,940.123352 
	C466.218903,938.103027 466.054749,936.346313 466.054352,934.589661 
	C466.040741,877.960449 466.101990,821.331116 465.935547,764.702393 
	C465.921570,759.952148 467.400452,758.715820 471.892029,758.937317 
	C478.856812,759.280640 485.850983,759.027954 493.752350,759.027954 
	C493.752350,773.034912 493.752350,786.767456 493.752197,801.000000 
z"/>
<path fill="#3662A8" opacity="1.000000" stroke="none" 
	d="
M590.635620,341.031586 
	C591.890808,321.428253 593.086609,301.820862 594.416870,282.222626 
	C595.883301,260.618408 597.512756,239.025284 598.988037,217.421646 
	C599.511780,209.752304 599.413025,209.554871 607.293030,210.082260 
	C630.220459,211.616776 653.133850,213.360519 676.060974,214.899445 
	C678.957581,215.093872 679.772278,216.158569 679.478760,218.937027 
	C678.866943,224.729202 678.217590,230.544113 678.141663,236.356964 
	C678.089478,240.358383 676.714233,241.510773 672.811646,241.194077 
	C659.200134,240.089493 645.547485,239.462585 631.952637,238.199631 
	C627.266541,237.764267 625.944824,239.057785 625.720093,243.668015 
	C625.038940,257.640289 623.954956,271.595917 622.822021,285.541260 
	C622.508667,289.398254 623.227783,291.214111 627.656799,291.418854 
	C638.628540,291.926056 649.582947,292.901031 660.520020,293.942932 
	C661.790588,294.063965 663.960938,295.823334 663.930603,296.765839 
	C663.685730,304.381958 663.014038,311.984406 662.424316,320.268768 
	C648.347107,319.370178 634.820251,318.506683 620.831482,317.613708 
	C620.375122,323.222626 619.973083,328.163361 619.058838,333.550842 
	C616.441162,333.661621 614.346802,333.203033 612.228271,333.011169 
	C603.770752,332.245117 596.878540,335.785828 590.635620,341.031586 
z"/>
<path fill="#3661A8" opacity="1.000000" stroke="none" 
	d="
M623.276367,810.428162 
	C630.712708,853.469482 638.149048,896.510742 645.727539,940.374939 
	C636.799988,940.374939 628.230286,940.502258 619.676147,940.194885 
	C618.730713,940.160950 617.309204,937.734680 617.067444,936.260681 
	C615.292175,925.436462 613.640625,914.587708 612.234436,903.709961 
	C611.863098,900.838013 611.056274,899.633972 608.005615,899.703186 
	C600.351807,899.876953 592.688293,899.886353 585.035217,899.697449 
	C581.982422,899.622131 581.082214,900.861755 580.706970,903.677063 
	C579.279724,914.385132 577.489624,925.045593 576.127380,935.760986 
	C575.685730,939.235596 574.528137,940.688965 570.840027,940.565857 
	C563.397461,940.317627 555.940796,940.491943 547.647400,940.491943 
	C553.387207,907.646729 558.981384,875.634888 565.055542,843.502441 
	C571.019775,850.833008 578.684448,854.301758 587.588257,855.878235 
	C586.847412,861.201599 586.240601,866.134644 585.363831,871.019104 
	C584.891479,873.650085 585.722717,874.787598 588.345642,874.779175 
	C593.814148,874.761597 599.290100,874.918579 604.744812,874.643433 
	C605.745239,874.593018 607.577393,872.718933 607.470154,871.887146 
	C606.522217,864.531921 605.222961,857.221985 604.095032,849.656372 
	C604.226196,849.258972 604.289795,849.103821 604.674622,848.899231 
	C612.851501,842.231323 615.967529,833.732117 614.327454,823.710754 
	C612.987122,815.520386 615.106018,811.716797 622.990723,809.959473 
	C623.074158,810.034302 623.276428,810.428162 623.276367,810.428162 
z"/>
<path fill="#FD18C7" opacity="1.000000" stroke="none" 
	d="
M412.359985,759.641846 
	C411.947113,760.037170 411.704742,760.097778 410.888916,760.062561 
	C404.224609,759.591248 398.134918,759.220703 392.045227,758.850159 
	C397.555206,749.560974 403.085663,740.283875 408.571228,730.980286 
	C422.782898,706.877014 426.098846,681.507263 417.532928,654.701111 
	C412.626862,639.348145 407.350616,624.083923 403.219635,608.519958 
	C397.373932,586.495605 398.842957,564.350647 404.199158,542.356812 
	C410.167725,517.848511 410.381500,493.313965 404.527832,468.719971 
	C403.615265,464.885834 403.633636,460.830109 403.722961,456.395264 
	C409.952240,455.612274 415.680084,455.310852 421.407898,455.009460 
	C422.275269,461.549927 422.876740,468.138794 424.056854,474.622345 
	C428.757812,500.450073 426.787659,525.938354 420.717072,551.289551 
	C415.552307,572.858276 416.809906,594.107544 423.692108,615.195740 
	C428.790405,630.817627 434.282440,646.412781 437.849365,662.409973 
	C444.029144,690.125732 438.199432,716.202393 423.808044,740.478760 
	C420.078094,746.770752 416.290405,753.028564 412.359985,759.641846 
z"/>
<path fill="#3662A8" opacity="1.000000" stroke="none" 
	d="
M689.876587,792.098999 
	C689.639709,811.251892 689.327148,830.404236 689.189514,849.557861 
	C689.075806,865.389282 689.129150,881.222473 689.204285,897.054382 
	C689.219238,900.206909 689.410583,903.404053 689.970703,906.499084 
	C691.175598,913.156677 696.124146,917.482544 702.652893,917.975403 
	C710.782410,918.589050 716.568115,915.754089 718.239807,908.616577 
	C719.770752,902.080261 719.901306,895.145813 720.056580,888.373169 
	C720.323792,876.721680 720.130981,876.708008 731.504150,877.239380 
	C735.497986,877.426025 739.513428,877.483276 743.467163,877.998047 
	C744.699219,878.158447 746.773682,879.658813 746.747559,880.491882 
	C746.403625,891.448059 746.836670,902.587708 744.927917,913.298767 
	C741.953064,929.992126 730.761597,939.578857 714.226440,942.655334 
	C701.353088,945.050476 688.843811,943.789124 677.782166,936.254700 
	C667.756714,929.426086 662.669983,919.195435 662.248535,907.382690 
	C661.470825,885.583435 661.585205,863.752441 661.327393,841.934631 
	C661.309692,840.435181 661.288208,838.935669 661.273804,836.804688 
	C661.279114,836.173096 661.528870,835.960938 661.893799,835.972168 
	C676.440125,833.287598 686.043457,819.346497 683.321045,805.407349 
	C681.831116,797.778198 683.585510,794.216614 689.876587,792.098999 
z"/>
<path fill="#3662A8" opacity="1.000000" stroke="none" 
	d="
M402.699585,455.161743 
	C393.149384,453.453339 385.593719,448.168396 380.340179,440.463562 
	C370.591858,426.166565 361.439148,411.452515 352.343292,396.723846 
	C335.186676,368.942505 318.312408,340.986755 301.137115,313.217102 
	C298.838226,309.500244 298.995544,307.603729 303.005676,305.535614 
	C308.024048,302.947540 312.863007,299.934418 317.492706,296.695007 
	C320.979004,294.255615 322.759735,294.956879 324.885223,298.471252 
	C340.920502,324.984406 357.120575,351.397980 373.284851,377.833069 
	C381.801453,391.761169 390.231049,405.744598 398.925842,419.560883 
	C404.538727,428.479828 409.728882,430.070526 420.247314,426.733795 
	C420.769196,426.777130 421.061218,427.079163 420.877808,427.355652 
	C416.108917,432.801056 411.064911,437.647064 407.110657,443.260681 
	C404.755371,446.604340 404.112366,451.154144 402.699585,455.161743 
z"/>
<path fill="#3662A8" opacity="1.000000" stroke="none" 
	d="
M448.121033,383.992249 
	C448.368347,384.277740 448.363220,384.643982 448.097931,385.130798 
	C443.389801,394.933380 446.349548,403.965668 448.860382,413.024139 
	C449.708679,416.084564 450.459442,419.172028 451.575989,423.489166 
	C439.970123,420.488281 430.359039,422.791473 421.061218,427.079163 
	C421.061218,427.079163 420.769196,426.777130 420.627930,426.619385 
	C430.788116,418.554932 431.954102,412.629608 425.002167,401.216187 
	C401.013031,361.831787 376.936981,322.500366 352.893768,283.148956 
	C349.340912,277.334045 349.335236,277.326324 355.026855,273.848938 
	C361.099945,270.138458 367.183655,266.445496 373.666138,262.499329 
	C398.550568,303.144440 423.212128,343.425629 448.121033,383.992249 
z"/>
<path fill="#432B9A" opacity="1.000000" stroke="none" 
	d="
M590.474792,341.298767 
	C596.878540,335.785828 603.770752,332.245117 612.228271,333.011169 
	C614.346802,333.203033 616.441162,333.661621 618.921997,333.988770 
	C619.405029,334.108307 619.512695,334.236664 619.719727,334.595032 
	C618.890137,346.222900 617.987793,357.622986 617.016479,369.017242 
	C616.720581,372.488037 619.017456,372.655029 621.467163,372.804657 
	C635.206055,373.643982 648.944031,374.496887 663.228271,375.479980 
	C663.774170,375.614807 663.986511,375.984711 663.640076,376.015930 
	C660.803772,377.927704 658.450012,380.031982 655.798035,381.646332 
	C648.242432,386.245850 645.034729,392.265198 648.864929,400.895691 
	C629.166138,399.594086 609.468872,398.267303 589.766907,397.015381 
	C586.442993,396.804199 586.741211,394.565430 586.881653,392.396332 
	C587.739685,379.143646 588.637390,365.893555 589.515259,352.642120 
	C589.712646,349.661804 589.883606,346.679718 590.016235,343.228821 
	C590.081909,342.361450 590.197937,341.963715 590.474792,341.298767 
z"/>
<path fill="#432B9A" opacity="1.000000" stroke="none" 
	d="
M523.203857,357.935577 
	C531.778870,351.886688 540.942749,349.173157 551.666260,352.985107 
	C552.539062,353.444458 553.003906,353.901550 553.729858,354.860474 
	C554.344421,355.577545 554.697754,355.792816 555.051147,356.008087 
	C555.051147,356.008087 554.998169,356.009003 555.002075,355.983154 
	C559.578308,364.353394 564.120422,372.766113 568.734863,381.138977 
	C571.260132,385.721100 573.907654,390.235809 576.860168,395.412262 
	C567.359985,397.690033 558.742737,399.913757 550.030151,401.661835 
	C548.830811,401.902496 546.594971,400.106567 545.791992,398.706787 
	C538.282227,385.615479 530.980591,372.404785 523.364624,358.785034 
	C523.110596,358.341461 523.203857,357.935577 523.203857,357.935577 
z"/>
<path fill="#422B9A" opacity="1.000000" stroke="none" 
	d="
M391.797852,758.940247 
	C398.134918,759.220703 404.224609,759.591248 410.713501,760.129272 
	C407.801300,766.283875 404.489288,772.270752 401.178741,778.258362 
	C400.149078,780.120667 399.123596,781.985291 397.764282,784.295288 
	C397.249023,784.817871 397.065765,784.894043 396.435669,784.900940 
	C386.434784,784.708557 387.916840,783.995972 387.796112,792.854248 
	C387.764771,795.154114 387.906036,797.456360 387.914795,800.158508 
	C387.735748,801.358459 387.609985,802.157471 387.484253,802.956421 
	C384.534027,807.226440 381.401947,811.383728 378.670654,815.789429 
	C372.577209,825.618469 366.683838,835.571533 360.406433,845.247681 
	C360.019806,834.267456 359.935791,823.513672 359.851746,812.759827 
	C359.923553,812.354553 359.995361,811.949219 360.434265,811.073242 
	C366.752625,800.640381 372.744171,790.702026 378.641602,780.708191 
	C382.846008,773.583313 386.923981,766.383850 391.058411,759.217651 
	C391.222443,759.155273 391.386444,759.092834 391.797852,758.940247 
z"/>
<path fill="#422B9A" opacity="1.000000" stroke="none" 
	d="
M420.877808,427.355652 
	C430.359039,422.791473 439.970123,420.488281 451.575989,423.489166 
	C450.459442,419.172028 449.708679,416.084564 448.860382,413.024139 
	C446.349548,403.965668 443.389801,394.933380 448.064880,385.310913 
	C456.853790,397.820282 461.699768,411.432800 455.355316,426.584595 
	C453.367615,431.331573 449.566681,435.319305 445.840759,439.823914 
	C443.267059,439.997009 441.447113,439.958099 439.629883,440.011871 
	C431.200775,440.261383 424.336334,445.815674 422.129913,454.140320 
	C422.057465,454.396759 421.920837,454.612518 421.563965,454.898560 
	C415.680084,455.310852 409.952240,455.612274 403.782898,455.948914 
	C403.217224,455.860138 403.093079,455.736176 402.834259,455.386963 
	C404.112366,451.154144 404.755371,446.604340 407.110657,443.260681 
	C411.064911,437.647064 416.108917,432.801056 420.877808,427.355652 
z"/>
<path fill="#422B9A" opacity="1.000000" stroke="none" 
	d="
M690.017944,792.021118 
	C683.585510,794.216614 681.831116,797.778198 683.321045,805.407349 
	C686.043457,819.346497 676.440125,833.287598 661.815002,835.514038 
	C661.273071,829.324890 661.174866,823.605286 661.190186,817.639954 
	C661.416016,817.252686 661.528198,817.111145 661.948181,816.902100 
	C665.774658,814.481201 666.400085,811.210205 665.658508,807.245605 
	C665.146179,804.506653 665.010315,801.662720 665.021057,798.866821 
	C665.058289,789.187561 672.169250,779.304321 681.810913,775.657593 
	C690.851379,772.238159 702.840820,773.488281 709.584229,781.919556 
	C697.591675,781.030457 693.493469,783.177917 690.400208,791.728577 
	C690.400208,791.728577 690.159302,791.943298 690.017944,792.021118 
z"/>
<path fill="#FD18C7" opacity="1.000000" stroke="none" 
	d="
M661.076599,817.885620 
	C661.174866,823.605286 661.273071,829.324890 661.450073,835.502747 
	C661.528870,835.960938 661.279114,836.173096 661.185547,836.307068 
	C647.659912,837.911499 636.530151,831.153809 631.847656,818.606628 
	C630.419495,814.779724 628.921692,811.122192 623.706177,810.494507 
	C623.276428,810.428162 623.074158,810.034302 623.020264,809.551025 
	C621.943848,803.724304 620.921326,798.380920 619.985229,792.843628 
	C620.071594,792.649719 620.190002,792.242798 620.605469,792.238159 
	C634.268738,792.360840 643.325806,798.702881 648.018005,811.137756 
	C650.627747,818.053833 654.117004,819.856873 661.076599,817.885620 
z"/>
<path fill="#3662A8" opacity="1.000000" stroke="none" 
	d="
M390.590179,759.143860 
	C386.923981,766.383850 382.846008,773.583313 378.641602,780.708191 
	C372.744171,790.702026 366.752625,800.640381 360.529724,810.779602 
	C360.193420,794.967041 360.184906,778.976807 360.015198,762.988220 
	C359.982300,759.889771 361.159882,758.933960 364.132538,758.982910 
	C372.793793,759.125427 381.458557,759.056213 390.590179,759.143860 
z"/>
<path fill="#432B9A" opacity="1.000000" stroke="none" 
	d="
M727.952820,762.082581 
	C739.195740,768.059509 744.056824,778.233948 745.908203,790.124146 
	C746.744141,795.492981 746.677856,801.002197 747.106445,806.937012 
	C747.103027,807.788025 747.014099,808.149658 746.544067,808.934692 
	C742.809875,811.758667 739.456726,814.159241 736.103577,816.559814 
	C731.025696,816.810242 725.947815,817.060669 720.505737,816.629272 
	C720.183777,810.261597 720.226074,804.575806 720.648438,798.985168 
	C724.671082,798.811768 728.990112,799.669434 731.785645,797.990356 
	C735.302673,795.878052 735.365967,791.499451 734.129333,787.180664 
	C731.759338,778.903687 729.978271,770.458191 727.952820,762.082581 
z"/>
<path fill="#FD18C7" opacity="1.000000" stroke="none" 
	d="
M359.579895,812.968994 
	C359.935791,823.513672 360.019806,834.267456 360.177643,845.475464 
	C360.155487,846.293213 360.059540,846.656799 359.908844,847.294434 
	C356.625214,852.768982 353.366608,857.951294 350.175629,863.174866 
	C346.771301,868.747864 341.851013,870.653137 337.420227,868.034363 
	C332.603607,865.187378 331.441315,859.872498 334.815338,854.139404 
	C342.883972,840.429382 351.132263,826.825073 359.579895,812.968994 
z"/>
<path fill="#422B9A" opacity="1.000000" stroke="none" 
	d="
M587.609924,855.467651 
	C578.684448,854.301758 571.019775,850.833008 565.269836,843.180237 
	C564.945312,842.603271 564.886475,842.227966 564.806030,841.568665 
	C566.962097,828.748779 569.139832,816.212891 571.471802,803.154663 
	C571.625916,802.632263 571.915466,802.542053 571.938110,802.982666 
	C574.015747,811.549744 575.973389,819.702454 578.155457,827.794739 
	C580.037292,834.774231 582.498596,836.580872 590.169189,837.630859 
	C589.479553,843.713135 588.778137,849.379211 587.976196,855.168701 
	C587.875610,855.292114 587.609924,855.467651 587.609924,855.467651 
z"/>
<path fill="#FD18C7" opacity="1.000000" stroke="none" 
	d="
M720.268372,798.889954 
	C720.226074,804.575806 720.183777,810.261597 720.159302,816.405884 
	C709.939575,815.425781 704.167480,808.827576 700.812927,799.720947 
	C699.108398,795.093933 696.726196,791.732666 690.843018,791.778320 
	C693.493469,783.177917 697.591675,781.030457 709.851807,782.123657 
	C716.500488,786.276123 718.237976,792.668701 720.268372,798.889954 
z"/>
<path fill="#3662A8" opacity="1.000000" stroke="none" 
	d="
M422.512024,454.105835 
	C424.336334,445.815674 431.200775,440.261383 439.629883,440.011871 
	C441.447113,439.958099 443.267059,439.997009 445.539490,439.963989 
	C445.993225,439.934753 445.997406,440.290253 445.964172,440.464935 
	C439.069550,446.519043 431.818909,451.730835 422.512024,454.105835 
z"/>
<path fill="#3662A8" opacity="1.000000" stroke="none" 
	d="
M736.535889,816.634460 
	C739.456726,814.159241 742.809875,811.758667 746.435669,809.192993 
	C747.264404,816.465698 747.264404,816.465698 736.535889,816.634460 
z"/>
<path fill="#FD17C6" opacity="1.000000" stroke="none" 
	d="
M555.013733,355.678925 
	C554.697754,355.792816 554.344421,355.577545 553.904785,355.036255 
	C554.204407,354.923431 554.590393,355.136597 555.013733,355.678925 
z"/>
<path fill="#CCE9FF" opacity="1.000000" stroke="none" 
	d="
M571.915466,802.542053 
	C571.915466,802.542053 571.625916,802.632263 571.499268,802.714966 
	C562.110046,767.911377 552.868530,733.019409 543.580017,698.140015 
	C530.438721,648.792725 517.260498,599.455322 504.112488,550.109802 
	C503.737152,548.701050 503.524536,547.248901 503.196472,545.620667 
	C522.520081,540.392456 541.594360,535.188477 560.693176,530.076477 
	C580.134094,524.872864 599.619324,519.833313 619.031494,514.525635 
	C621.861084,513.752014 623.469971,514.034302 625.387146,516.393921 
	C630.599182,522.808777 634.237488,524.808594 646.853394,529.330566 
	C636.754822,539.367432 632.430237,551.247620 635.923096,565.101074 
	C639.409180,578.927673 648.797119,587.234619 662.745117,591.341431 
	C653.356323,601.087036 650.674194,612.347534 654.518738,625.480835 
	C636.545166,630.319885 618.981934,635.048462 601.456421,639.766907 
	C600.591309,635.787781 600.197144,632.110840 598.984985,628.726868 
	C594.121460,615.149231 579.550049,608.041077 565.803162,612.302246 
	C552.890930,616.304810 544.312317,631.021729 547.684509,643.385315 
	C551.863220,658.705811 565.194214,667.291138 579.884766,663.731445 
	C592.813110,660.598755 605.668701,657.147888 618.484497,653.579163 
	C622.410706,652.485779 624.296692,652.713745 625.434204,657.341064 
	C629.563232,674.136658 634.216858,690.803162 638.647949,707.524902 
	C639.065918,709.102112 639.310974,710.725281 639.687378,712.578613 
	C633.754211,714.178162 628.035706,715.719788 623.507568,716.940491 
	C620.505981,710.253906 618.660706,703.606262 614.900330,698.321350 
	C608.136292,688.815002 593.851440,686.181763 583.279785,691.332703 
	C572.253601,696.705078 566.027588,708.731018 568.315063,720.237976 
	C570.810425,732.790710 580.590698,742.206421 592.829773,741.806030 
	C600.978760,741.539490 609.142273,739.182861 617.133911,737.120605 
	C640.000183,731.220154 662.788452,725.015930 685.593933,718.881165 
	C693.663269,716.710571 695.621582,712.987488 693.448730,704.841614 
	C688.432861,686.038208 683.493408,667.214417 678.541260,648.394104 
	C678.304688,647.495056 678.244629,646.549500 678.162109,646.013611 
	C684.005127,645.415649 689.551025,644.848145 695.829529,644.205627 
	C697.125671,648.929626 698.587524,654.136353 699.982239,659.361084 
	C708.519470,691.342834 717.044189,723.328003 725.558838,755.315796 
	C725.900452,756.599243 726.099243,757.920715 725.816772,759.712830 
	C716.506104,756.385864 707.338013,755.382690 697.888123,756.163147 
	C680.472595,757.601746 667.136169,767.879578 663.765991,784.760620 
	C661.677490,795.221436 662.257996,806.215149 661.640381,816.969666 
	C661.528198,817.111145 661.416016,817.252686 661.190186,817.639954 
	C654.117004,819.856873 650.627747,818.053833 648.018005,811.137756 
	C643.325806,798.702881 634.268738,792.360840 620.500916,791.816162 
	C618.301025,781.738037 616.744873,772.052185 614.798889,762.445312 
	C614.527954,761.107910 612.365601,759.221130 611.031128,759.181213 
	C601.552979,758.897522 592.058777,758.899597 582.579895,759.170654 
	C581.205444,759.209961 578.922729,760.995605 578.689453,762.271118 
	C576.240784,775.659851 574.123962,789.109375 571.915466,802.542053 
M542.043335,558.358765 
	C535.416260,553.703247 527.711670,556.403931 527.012146,563.663147 
	C526.596497,567.977112 528.545959,571.069763 532.383545,572.869080 
	C536.177979,574.648315 539.735596,573.567078 542.363098,570.713257 
	C545.728455,567.057861 545.561035,562.918274 542.043335,558.358765 
M596.441345,543.309509 
	C595.498535,550.096130 598.731934,554.860291 604.425171,555.073120 
	C608.800476,555.236633 612.566223,552.413330 613.605408,548.190369 
	C614.589478,544.191528 612.280884,539.708191 608.359863,538.003113 
	C603.822144,536.029846 600.062805,537.526611 596.441345,543.309509 
M579.189575,555.459900 
	C579.132751,551.115540 576.989380,548.235413 572.887085,546.990173 
	C567.881653,545.470764 563.060486,548.315857 561.777832,553.360107 
	C560.571960,558.102295 563.487793,562.987915 568.156006,564.046997 
	C573.682617,565.300964 577.632629,562.513672 579.189575,555.459900 
z"/>
<path fill="#CCE9FE" opacity="1.000000" stroke="none" 
	d="
M663.986511,375.984711 
	C663.986511,375.984711 663.774170,375.614807 663.665649,375.431610 
	C671.623108,368.538025 679.575317,361.684448 687.787231,355.157593 
	C695.969482,348.654358 706.573059,349.591919 712.864807,357.017670 
	C719.558350,364.917511 718.339111,375.905609 709.776184,383.123260 
	C697.295410,393.643372 684.712341,404.042236 672.169800,414.489014 
	C667.088928,418.720856 661.999817,422.942596 656.333069,427.652069 
	C653.980530,418.641937 651.811096,410.333221 650.006592,401.598969 
	C655.699524,401.508606 661.027466,401.843781 666.597046,402.194153 
	C667.112732,394.070801 667.486450,386.846954 668.067139,379.639801 
	C668.330383,376.372894 666.879456,375.491364 663.986511,375.984711 
z"/>
<path fill="#CCE9FF" opacity="1.000000" stroke="none" 
	d="
M586.212524,421.949738 
	C599.805542,417.517090 611.405823,421.048126 618.840210,431.643738 
	C625.466797,441.087982 624.931152,454.417938 617.214050,463.685425 
	C610.003052,472.345184 600.552612,475.162231 589.806885,472.314667 
	C578.786011,469.394226 571.965271,461.837585 570.253296,450.634552 
	C568.579102,439.678741 572.713867,430.713593 581.962708,424.337646 
	C583.191711,423.490417 584.545776,422.824493 586.212524,421.949738 
z"/>
<path fill="#3662A8" opacity="1.000000" stroke="none" 
	d="
M661.948181,816.902100 
	C662.257996,806.215149 661.677490,795.221436 663.765991,784.760620 
	C667.136169,767.879578 680.472595,757.601746 697.888123,756.163147 
	C707.338013,755.382690 716.506104,756.385864 725.646545,760.107544 
	C726.024109,760.013855 725.974915,760.005859 725.944946,760.255188 
	C726.246277,760.634949 726.577515,760.765381 726.908813,760.895752 
	C727.144592,761.156494 727.380371,761.417236 727.784485,761.880249 
	C729.978271,770.458191 731.759338,778.903687 734.129333,787.180664 
	C735.365967,791.499451 735.302673,795.878052 731.785645,797.990356 
	C728.990112,799.669434 724.671082,798.811768 720.648438,798.985168 
	C718.237976,792.668701 716.500488,786.276123 710.314941,782.124390 
	C702.840820,773.488281 690.851379,772.238159 681.810913,775.657593 
	C672.169250,779.304321 665.058289,789.187561 665.021057,798.866821 
	C665.010315,801.662720 665.146179,804.506653 665.658508,807.245605 
	C666.400085,811.210205 665.774658,814.481201 661.948181,816.902100 
z"/>
<path fill="#CCE9FE" opacity="1.000000" stroke="none" 
	d="
M685.927856,485.767151 
	C685.049011,493.458466 680.777588,498.242615 674.637329,501.690033 
	C670.285278,504.133392 665.972351,506.646454 661.624695,509.097565 
	C653.432861,513.715942 643.186707,511.508484 638.057617,504.042297 
	C632.686401,496.223694 633.904175,485.446838 641.624329,479.900879 
	C647.805542,475.460419 654.473633,471.447906 661.428894,468.390289 
	C673.302795,463.170349 685.335876,471.805267 685.927856,485.767151 
z"/>
<path fill="#CCE9FE" opacity="1.000000" stroke="none" 
	d="
M671.950928,534.929932 
	C676.839294,532.043335 681.259644,529.231140 687.031677,529.673523 
	C694.780029,530.267456 700.803223,534.816345 703.051025,542.395691 
	C705.152527,549.481628 702.855957,557.351501 696.724854,561.401001 
	C690.504822,565.509338 684.047302,569.370667 677.335022,572.592590 
	C668.963989,576.610657 659.026733,572.761536 654.798462,564.569336 
	C650.555237,556.348389 653.106812,546.209778 660.822144,541.290894 
	C664.317017,539.062683 668.020569,537.161865 671.950928,534.929932 
z"/>
<path fill="#CCE9FE" opacity="1.000000" stroke="none" 
	d="
M676.059326,625.091492 
	C668.026245,617.111511 668.996704,607.793030 678.289368,602.016785 
	C682.931824,599.131042 687.712830,596.448364 692.552551,593.904785 
	C699.553772,590.225037 707.453857,592.466248 711.040588,598.944153 
	C714.665649,605.491272 712.699646,612.852722 705.952026,617.026062 
	C700.738953,620.250183 695.385925,623.257751 690.007385,626.201416 
	C685.340881,628.755493 680.755249,628.051514 676.059326,625.091492 
z"/>
<path fill="#432B9A" opacity="1.000000" stroke="none" 
	d="
M474.414429,370.481689 
	C485.331543,370.856598 493.876373,377.526428 497.587646,388.186920 
	C499.926300,394.904785 501.560913,396.068573 508.996643,395.833466 
	C509.591522,395.780762 509.895325,395.929047 509.895325,395.929047 
	C510.618683,399.497925 511.209656,403.100586 512.109741,406.624329 
	C512.761780,409.177032 512.487488,410.843384 509.506653,411.227020 
	C508.529480,411.352753 507.588562,411.740082 506.621277,411.966003 
	C499.714050,413.579437 492.804321,415.182037 485.200073,416.949677 
	C481.558350,401.408844 477.978058,386.130219 474.414429,370.481689 
z"/>
<path fill="#CAE7FD" opacity="1.000000" stroke="none" 
	d="
M510.202515,395.769989 
	C509.895325,395.929047 509.591522,395.780762 509.423889,395.754517 
	C504.707794,375.939392 500.158417,356.150665 495.613647,336.360901 
	C495.396179,335.413940 495.218811,334.457703 494.904785,332.932739 
	C498.578949,332.015533 502.031067,330.880310 505.569916,330.435364 
	C506.645844,330.300110 508.399994,331.813324 509.096100,333.007294 
	C513.788025,341.055023 518.278931,349.220001 523.019409,357.641296 
	C523.203857,357.935577 523.110596,358.341461 523.103271,358.548950 
	C515.475708,365.708038 513.393799,374.460449 515.319946,384.221344 
	C516.333008,389.355133 514.955017,393.012787 510.202515,395.769989 
z"/>
<path fill="#CDE7FE" opacity="1.000000" stroke="none" 
	d="
M551.207886,449.727966 
	C553.473877,458.147308 555.689697,466.159973 557.783508,474.204437 
	C559.374084,480.315460 556.974182,484.981384 551.635742,486.493683 
	C547.044556,487.794342 542.126648,484.615051 540.543152,478.885651 
	C537.487610,467.830170 534.570007,456.734192 531.782104,445.608154 
	C530.430725,440.215088 533.131714,435.880615 538.265686,434.476349 
	C542.666870,433.272522 547.100220,435.785461 548.768738,440.669495 
	C549.733826,443.494385 550.338440,446.442383 551.207886,449.727966 
z"/>
<path fill="#CDE7FE" opacity="1.000000" stroke="none" 
	d="
M523.536743,484.530457 
	C524.058716,490.887573 521.480408,494.918976 516.664124,495.885010 
	C512.114380,496.797607 507.548157,493.666077 506.021515,488.175110 
	C502.994263,477.286591 500.069244,466.367310 497.291656,455.412628 
	C495.820404,449.610016 498.471344,445.124939 503.738647,443.771027 
	C508.541962,442.536438 513.003357,445.278900 514.562805,450.894928 
	C517.630798,461.943756 520.463806,473.057800 523.536743,484.530457 
z"/>
<path fill="#3662A8" opacity="1.000000" stroke="none" 
	d="
M663.640076,376.015930 
	C666.879456,375.491364 668.330383,376.372894 668.067139,379.639801 
	C667.486450,386.846954 667.112732,394.070801 666.597046,402.194153 
	C661.027466,401.843781 655.699524,401.508606 649.908936,401.208801 
	C649.446411,401.244171 649.138733,401.100128 649.001831,400.997925 
	C645.034729,392.265198 648.242432,386.245850 655.798035,381.646332 
	C658.450012,380.031982 660.803772,377.927704 663.640076,376.015930 
z"/>
<path fill="#CCE9FF" opacity="1.000000" stroke="none" 
	d="
M726.874756,760.611938 
	C726.577515,760.765381 726.246277,760.634949 725.949829,760.230469 
	C726.269958,760.080322 726.555298,760.204224 726.874756,760.611938 
z"/>
<path fill="#CAE9FE" opacity="1.000000" stroke="none" 
	d="
M1027.684082,662.354431 
	C1021.271301,655.577209 1022.164612,647.122742 1020.385864,638.823608 
	C1038.722534,636.006165 1056.396851,633.290466 1074.921143,630.444153 
	C1075.619507,636.535400 1076.784668,642.225037 1076.789185,647.915649 
	C1076.794312,654.425171 1073.435913,660.137268 1067.172974,661.719482 
	C1057.451660,664.175354 1047.390747,665.553345 1037.389648,666.473999 
	C1034.386719,666.750488 1031.103760,663.985291 1027.684082,662.354431 
z"/>
<path fill="#CAE9FE" opacity="1.000000" stroke="none" 
	d="
M874.764282,465.765015 
	C870.769043,469.303741 867.242737,472.894653 863.226807,475.811249 
	C856.011963,481.051025 848.213501,480.244080 841.951477,474.105865 
	C835.479126,467.761444 834.555542,459.904572 839.775452,452.457977 
	C842.055725,449.205048 844.810730,446.243713 847.601807,443.396667 
	C868.482178,422.097565 889.368591,400.803741 910.403809,379.658051 
	C914.002380,376.040588 917.964233,372.494598 922.385986,370.051788 
	C929.609375,366.061157 936.037903,367.873962 942.020203,374.409180 
	C947.041931,379.894897 947.883606,387.329529 943.754456,393.754547 
	C941.520752,397.230194 938.877075,400.526550 935.988159,403.483337 
	C915.725769,424.221405 895.351318,444.849854 874.764282,465.765015 
z"/>
<path fill="#CAE9FE" opacity="1.000000" stroke="none" 
	d="
M509.840271,299.882751 
	C502.988098,302.656830 496.420074,305.197906 488.997253,308.069672 
	C484.594604,289.302094 480.457184,271.665161 476.156342,253.331558 
	C482.178040,252.161575 487.614532,250.615372 493.141663,250.153290 
	C500.330658,249.552246 506.273041,252.974472 508.522766,259.687958 
	C511.444641,268.407135 513.245544,277.544495 514.956909,286.609863 
	C515.894653,291.576874 513.864319,296.087738 509.840271,299.882751 
z"/>
<path fill="#CAE9FE" opacity="1.000000" stroke="none" 
	d="
M396.882507,784.970276 
	C397.065765,784.894043 397.249023,784.817871 397.704346,784.620361 
	C398.964203,784.610901 399.949249,784.768555 400.940186,784.827332 
	C411.073181,785.428833 417.051147,790.804443 417.748383,800.949341 
	C418.260071,808.394775 418.272308,815.937683 417.715637,823.377930 
	C416.959564,833.483276 410.864075,838.803833 400.684601,839.257446 
	C387.757843,839.833618 387.766663,839.833618 387.754517,826.830505 
	C387.747406,819.180420 387.706940,811.530273 387.582825,803.418335 
	C387.609985,802.157471 387.735748,801.358459 388.158569,799.949158 
	C391.264618,794.549255 394.073547,789.759766 396.882507,784.970276 
z"/>
<path fill="#422B9A" opacity="1.000000" stroke="none" 
	d="
M619.898865,793.037537 
	C620.921326,798.380920 621.943848,803.724304 622.936768,809.476196 
	C615.106018,811.716797 612.987122,815.520386 614.327454,823.710754 
	C615.967529,833.732117 612.851501,842.231323 604.558350,848.481384 
	C602.354065,834.814453 600.587280,821.515930 598.868835,807.837280 
	C601.892151,799.047424 610.495239,793.134949 619.898865,793.037537 
z"/>
<path fill="#CAE7FD" opacity="1.000000" stroke="none" 
	d="
M587.588257,855.878235 
	C587.609924,855.467651 587.875610,855.292114 588.394836,855.187256 
	C593.951904,853.354492 598.989685,851.626587 604.027527,849.898621 
	C605.222961,857.221985 606.522217,864.531921 607.470154,871.887146 
	C607.577393,872.718933 605.745239,874.593018 604.744812,874.643433 
	C599.290100,874.918579 593.814148,874.761597 588.345642,874.779175 
	C585.722717,874.787598 584.891479,873.650085 585.363831,871.019104 
	C586.240601,866.134644 586.847412,861.201599 587.588257,855.878235 
z"/>
<path fill="#FD18C7" opacity="1.000000" stroke="none" 
	d="
M604.095032,849.656372 
	C598.989685,851.626587 593.951904,853.354492 588.495422,855.063904 
	C588.778137,849.379211 589.479553,843.713135 590.362732,837.519592 
	C590.544495,836.992188 590.876343,836.695496 591.129028,836.587646 
	C595.666687,834.210938 597.787903,830.787598 596.582703,825.910034 
	C595.060303,819.749207 595.547974,813.824036 598.274658,808.082458 
	C598.457092,808.125366 598.820557,808.217346 598.820557,808.217346 
	C600.587280,821.515930 602.354065,834.814453 604.237061,848.530884 
	C604.289795,849.103821 604.226196,849.258972 604.095032,849.656372 
z"/>
<path fill="#FD18C7" opacity="1.000000" stroke="none" 
	d="
M396.435669,784.900940 
	C394.073547,789.759766 391.264618,794.549255 388.211853,799.548157 
	C387.906036,797.456360 387.764771,795.154114 387.796112,792.854248 
	C387.916840,783.995972 386.434784,784.708557 396.435669,784.900940 
z"/>
<path fill="#3661A8" opacity="1.000000" stroke="none" 
	d="
M598.868896,807.837280 
	C598.820557,808.217346 598.457092,808.125366 598.266235,807.657349 
	C597.725525,804.625549 597.375732,802.061768 597.025879,799.497986 
	C596.570068,799.483032 596.114258,799.468079 595.658447,799.453125 
	C594.064453,811.867249 592.470398,824.281372 590.876343,836.695496 
	C590.876343,836.695496 590.544495,836.992188 590.350952,837.103455 
	C582.498596,836.580872 580.037292,834.774231 578.155457,827.794739 
	C575.973389,819.702454 574.015747,811.549744 571.938110,802.982666 
	C574.123962,789.109375 576.240784,775.659851 578.689453,762.271118 
	C578.922729,760.995605 581.205444,759.209961 582.579895,759.170654 
	C592.058777,758.899597 601.552979,758.897522 611.031128,759.181213 
	C612.365601,759.221130 614.527954,761.107910 614.798889,762.445312 
	C616.744873,772.052185 618.301025,781.738037 620.085449,791.820801 
	C620.190002,792.242798 620.071594,792.649719 619.985229,792.843628 
	C610.495239,793.134949 601.892151,799.047424 598.868896,807.837280 
z"/>
<path fill="#FD18C7" opacity="1.000000" stroke="none" 
	d="
M542.299072,558.650269 
	C545.561035,562.918274 545.728455,567.057861 542.363098,570.713257 
	C539.735596,573.567078 536.177979,574.648315 532.383545,572.869080 
	C528.545959,571.069763 526.596497,567.977112 527.012146,563.663147 
	C527.711670,556.403931 535.416260,553.703247 542.299072,558.650269 
z"/>
<path fill="#FD18C7" opacity="1.000000" stroke="none" 
	d="
M596.614136,542.960144 
	C600.062805,537.526611 603.822144,536.029846 608.359863,538.003113 
	C612.280884,539.708191 614.589478,544.191528 613.605408,548.190369 
	C612.566223,552.413330 608.800476,555.236633 604.425171,555.073120 
	C598.731934,554.860291 595.498535,550.096130 596.614136,542.960144 
z"/>
<path fill="#FD18C7" opacity="1.000000" stroke="none" 
	d="
M579.175171,555.870728 
	C577.632629,562.513672 573.682617,565.300964 568.156006,564.046997 
	C563.487793,562.987915 560.571960,558.102295 561.777832,553.360107 
	C563.060486,548.315857 567.881653,545.470764 572.887085,546.990173 
	C576.989380,548.235413 579.132751,551.115540 579.175171,555.870728 
z"/>
<path fill="#CAE7FD" opacity="1.000000" stroke="none" 
	d="
M591.129028,836.587646 
	C592.470398,824.281372 594.064453,811.867249 595.658447,799.453125 
	C596.114258,799.468079 596.570068,799.483032 597.025879,799.497986 
	C597.375732,802.061768 597.725525,804.625549 598.083740,807.614441 
	C595.547974,813.824036 595.060303,819.749207 596.582703,825.910034 
	C597.787903,830.787598 595.666687,834.210938 591.129028,836.587646 
z"/>
</svg>